<svg width="116" height="40" viewBox="0 0 116 40" fill="none" xmlns="http://www.w3.org/2000/svg">
<g filter="url(#filter0_d_2039_32285)">
<rect x="2" y="1" width="112" height="36" rx="8" fill="url(#paint0_linear_2039_32285)"/>
<path d="M18.3665 13.8182L21.0163 21.8324H21.1207L23.7656 13.8182H25.794L22.2045 24H19.9276L16.343 13.8182H18.3665ZM27.0556 24V16.3636H28.8553V24H27.0556ZM27.9604 15.2798C27.6754 15.2798 27.4301 15.1854 27.2246 14.9964C27.0191 14.8042 26.9164 14.5739 26.9164 14.3054C26.9164 14.0336 27.0191 13.8033 27.2246 13.6143C27.4301 13.4221 27.6754 13.326 27.9604 13.326C28.2488 13.326 28.494 13.4221 28.6962 13.6143C28.9017 13.8033 29.0044 14.0336 29.0044 14.3054C29.0044 14.5739 28.9017 14.8042 28.6962 14.9964C28.494 15.1854 28.2488 15.2798 27.9604 15.2798ZM34.0866 24.1491C33.321 24.1491 32.6598 23.9901 32.103 23.6719C31.5495 23.3504 31.1236 22.8963 30.8253 22.3097C30.527 21.7197 30.3778 21.0253 30.3778 20.2266C30.3778 19.4411 30.527 18.7517 30.8253 18.1584C31.1269 17.5618 31.5478 17.0978 32.0881 16.7663C32.6283 16.4316 33.263 16.2642 33.9922 16.2642C34.4628 16.2642 34.907 16.3404 35.3246 16.4929C35.7455 16.642 36.1167 16.8741 36.4382 17.1889C36.763 17.5038 37.0182 17.9048 37.2038 18.392C37.3894 18.8759 37.4822 19.4527 37.4822 20.1222V20.674H31.223V19.4609H35.7571C35.7538 19.1162 35.6792 18.8097 35.5334 18.5412C35.3875 18.2694 35.1837 18.0556 34.9219 17.8999C34.6634 17.7441 34.3617 17.6662 34.017 17.6662C33.6491 17.6662 33.326 17.7557 33.0476 17.9347C32.7692 18.1103 32.5521 18.3423 32.3963 18.6307C32.2438 18.9157 32.166 19.2289 32.1626 19.5703V20.6293C32.1626 21.0734 32.2438 21.4545 32.4062 21.7727C32.5687 22.0876 32.7957 22.3295 33.0874 22.4986C33.379 22.6643 33.7204 22.7472 34.1115 22.7472C34.3733 22.7472 34.6103 22.7107 34.8224 22.6378C35.0346 22.5616 35.2185 22.4505 35.3743 22.3047C35.5301 22.1589 35.6477 21.9782 35.7273 21.7628L37.4077 21.9517C37.3016 22.3958 37.0994 22.7836 36.8011 23.1151C36.5062 23.4432 36.1283 23.6984 35.6676 23.8807C35.2069 24.0597 34.6799 24.1491 34.0866 24.1491ZM40.5398 24L38.3821 16.3636H40.2166L41.5589 21.733H41.6286L43.0007 16.3636H44.8153L46.1875 21.7031H46.2621L47.5845 16.3636H49.424L47.2614 24H45.3871L43.9553 18.8395H43.8509L42.419 24H40.5398ZM54.1532 24V16.3636H55.8983V17.6364H55.9778C56.117 17.1955 56.3556 16.8558 56.6937 16.6172C57.0351 16.3752 57.4245 16.2543 57.862 16.2543C57.9615 16.2543 58.0725 16.2592 58.1951 16.2692C58.3211 16.2758 58.4255 16.2874 58.5083 16.304V17.9595C58.4321 17.933 58.3111 17.9098 58.1454 17.8899C57.983 17.8667 57.8256 17.8551 57.6731 17.8551C57.345 17.8551 57.05 17.9264 56.7882 18.0689C56.5297 18.2081 56.3258 18.402 56.1767 18.6506C56.0275 18.8991 55.9529 19.1858 55.9529 19.5107V24H54.1532ZM62.7702 24.1491C62.0046 24.1491 61.3434 23.9901 60.7866 23.6719C60.2331 23.3504 59.8072 22.8963 59.5089 22.3097C59.2106 21.7197 59.0614 21.0253 59.0614 20.2266C59.0614 19.4411 59.2106 18.7517 59.5089 18.1584C59.8105 17.5618 60.2314 17.0978 60.7717 16.7663C61.3119 16.4316 61.9466 16.2642 62.6758 16.2642C63.1464 16.2642 63.5906 16.3404 64.0082 16.4929C64.4291 16.642 64.8003 16.8741 65.1218 17.1889C65.4466 17.5038 65.7018 17.9048 65.8874 18.392C66.073 18.8759 66.1658 19.4527 66.1658 20.1222V20.674H59.9066V19.4609H64.4407C64.4374 19.1162 64.3628 18.8097 64.217 18.5412C64.0711 18.2694 63.8673 18.0556 63.6055 17.8999C63.3469 17.7441 63.0453 17.6662 62.7006 17.6662C62.3327 17.6662 62.0096 17.7557 61.7312 17.9347C61.4528 18.1103 61.2357 18.3423 61.0799 18.6307C60.9274 18.9157 60.8496 19.2289 60.8462 19.5703V20.6293C60.8462 21.0734 60.9274 21.4545 61.0898 21.7727C61.2522 22.0876 61.4793 22.3295 61.771 22.4986C62.0626 22.6643 62.404 22.7472 62.7951 22.7472C63.0569 22.7472 63.2939 22.7107 63.506 22.6378C63.7182 22.5616 63.9021 22.4505 64.0579 22.3047C64.2137 22.1589 64.3313 21.9782 64.4109 21.7628L66.0913 21.9517C65.9852 22.3958 65.783 22.7836 65.4847 23.1151C65.1897 23.4432 64.8119 23.6984 64.3512 23.8807C63.8905 24.0597 63.3635 24.1491 62.7702 24.1491ZM73.7239 18.3821L72.0833 18.5611C72.0369 18.3954 71.9557 18.2396 71.8397 18.0938C71.727 17.9479 71.5745 17.8303 71.3823 17.7408C71.19 17.6513 70.9547 17.6065 70.6763 17.6065C70.3018 17.6065 69.9869 17.6877 69.7317 17.8501C69.4798 18.0125 69.3555 18.223 69.3588 18.4815C69.3555 18.7036 69.4367 18.8842 69.6025 19.0234C69.7715 19.1626 70.0499 19.277 70.4377 19.3665L71.7402 19.6449C72.4628 19.8007 72.9997 20.0476 73.351 20.3857C73.7057 20.7237 73.8846 21.1662 73.888 21.7131C73.8846 22.1937 73.7438 22.6179 73.4654 22.9858C73.1903 23.3504 72.8075 23.6354 72.3169 23.8409C71.8264 24.0464 71.263 24.1491 70.6266 24.1491C69.6919 24.1491 68.9396 23.9536 68.3695 23.5625C67.7994 23.1681 67.4597 22.6196 67.3503 21.9169L69.1053 21.7479C69.1848 22.0926 69.3539 22.3527 69.6124 22.5284C69.8709 22.7041 70.2073 22.7919 70.6216 22.7919C71.0492 22.7919 71.3922 22.7041 71.6507 22.5284C71.9126 22.3527 72.0435 22.1357 72.0435 21.8771C72.0435 21.6584 71.959 21.4777 71.79 21.3352C71.6242 21.1927 71.3657 21.0833 71.0144 21.0071L69.7118 20.7337C68.9793 20.5812 68.4374 20.3243 68.0861 19.9631C67.7348 19.5985 67.5608 19.1378 67.5641 18.581C67.5608 18.1103 67.6884 17.7027 67.9469 17.358C68.2087 17.0099 68.5717 16.7415 69.0357 16.5526C69.503 16.3603 70.0416 16.2642 70.6515 16.2642C71.5463 16.2642 72.2507 16.4548 72.7644 16.8359C73.2814 17.2171 73.6013 17.7325 73.7239 18.3821ZM80.2392 20.7884V16.3636H82.0389V24H80.2939V22.6428H80.2143C80.042 23.0703 79.7586 23.42 79.3642 23.6918C78.9731 23.9635 78.4908 24.0994 77.9174 24.0994C77.417 24.0994 76.9745 23.9884 76.59 23.7663C76.2089 23.541 75.9106 23.2145 75.6951 22.7869C75.4797 22.3561 75.372 21.8357 75.372 21.2259V16.3636H77.1717V20.9474C77.1717 21.4313 77.3043 21.8158 77.5694 22.1009C77.8346 22.3859 78.1826 22.5284 78.6135 22.5284C78.8786 22.5284 79.1355 22.4638 79.3841 22.3345C79.6326 22.2053 79.8365 22.013 79.9956 21.7578C80.158 21.4993 80.2392 21.1761 80.2392 20.7884ZM85.6893 13.8182V24H83.8896V13.8182H85.6893ZM91.3532 16.3636V17.7557H86.9632V16.3636H91.3532ZM88.0471 14.5341H89.8468V21.7031C89.8468 21.9451 89.8832 22.1307 89.9561 22.2599C90.0324 22.3859 90.1318 22.4721 90.2544 22.5185C90.3771 22.5649 90.513 22.5881 90.6621 22.5881C90.7748 22.5881 90.8775 22.5798 90.9703 22.5632C91.0665 22.5466 91.1394 22.5317 91.1891 22.5185L91.4924 23.9254C91.3962 23.9586 91.2587 23.995 91.0797 24.0348C90.9041 24.0746 90.6886 24.0978 90.4334 24.1044C89.9827 24.1177 89.5766 24.0497 89.2154 23.9006C88.8541 23.7481 88.5674 23.5128 88.3553 23.1946C88.1465 22.8764 88.0437 22.4787 88.0471 22.0014V14.5341ZM98.7844 18.3821L97.1438 18.5611C97.0974 18.3954 97.0162 18.2396 96.9002 18.0938C96.7875 17.9479 96.6351 17.8303 96.4428 17.7408C96.2506 17.6513 96.0153 17.6065 95.7369 17.6065C95.3623 17.6065 95.0475 17.6877 94.7923 17.8501C94.5404 18.0125 94.4161 18.223 94.4194 18.4815C94.4161 18.7036 94.4973 18.8842 94.663 19.0234C94.832 19.1626 95.1104 19.277 95.4982 19.3665L96.8008 19.6449C97.5233 19.8007 98.0603 20.0476 98.4116 20.3857C98.7662 20.7237 98.9452 21.1662 98.9485 21.7131C98.9452 22.1937 98.8043 22.6179 98.5259 22.9858C98.2508 23.3504 97.868 23.6354 97.3775 23.8409C96.887 24.0464 96.3235 24.1491 95.6871 24.1491C94.7525 24.1491 94.0001 23.9536 93.43 23.5625C92.86 23.1681 92.5202 22.6196 92.4109 21.9169L94.1658 21.7479C94.2454 22.0926 94.4144 22.3527 94.6729 22.5284C94.9315 22.7041 95.2679 22.7919 95.6822 22.7919C96.1097 22.7919 96.4528 22.7041 96.7113 22.5284C96.9731 22.3527 97.104 22.1357 97.104 21.8771C97.104 21.6584 97.0195 21.4777 96.8505 21.3352C96.6848 21.1927 96.4263 21.0833 96.0749 21.0071L94.7724 20.7337C94.0399 20.5812 93.498 20.3243 93.1467 19.9631C92.7953 19.5985 92.6213 19.1378 92.6246 18.581C92.6213 18.1103 92.7489 17.7027 93.0075 17.358C93.2693 17.0099 93.6322 16.7415 94.0962 16.5526C94.5636 16.3603 95.1022 16.2642 95.712 16.2642C96.6069 16.2642 97.3112 16.4548 97.8249 16.8359C98.342 17.2171 98.6618 17.7325 98.7844 18.3821Z" fill="white"/>
</g>
<defs>
<filter id="filter0_d_2039_32285" x="0" y="0" width="116" height="40" filterUnits="userSpaceOnUse" color-interpolation-filters="sRGB">
<feFlood flood-opacity="0" result="BackgroundImageFix"/>
<feColorMatrix in="SourceAlpha" type="matrix" values="0 0 0 0 0 0 0 0 0 0 0 0 0 0 0 0 0 0 127 0" result="hardAlpha"/>
<feOffset dy="1"/>
<feGaussianBlur stdDeviation="1"/>
<feColorMatrix type="matrix" values="0 0 0 0 0.0627451 0 0 0 0 0.0941176 0 0 0 0 0.156863 0 0 0 0.05 0"/>
<feBlend mode="normal" in2="BackgroundImageFix" result="effect1_dropShadow_2039_32285"/>
<feBlend mode="normal" in="SourceGraphic" in2="effect1_dropShadow_2039_32285" result="shape"/>
</filter>
<linearGradient id="paint0_linear_2039_32285" x1="3.58491" y1="22" x2="112.943" y2="22" gradientUnits="userSpaceOnUse">
<stop stop-color="#FF9601"/>
<stop offset="1" stop-color="#B02828"/>
</linearGradient>
</defs>
</svg>
