<svg width="520" height="150" viewBox="0 0 520 150" fill="none" xmlns="http://www.w3.org/2000/svg">
<g clip-path="url(#clip0_2026_4131)">
<rect width="520" height="150" fill="white"/>
<g filter="url(#filter0_b_2026_4131)">
<rect width="520" height="150" fill="#FAF9F6"/>
<rect x="0.5" y="0.5" width="519" height="149" stroke="white" stroke-opacity="0.3" style="mix-blend-mode:overlay"/>
</g>
<g filter="url(#filter1_i_2026_4131)">
<circle cx="389.146" cy="-36.0217" r="55.2886" transform="rotate(154.838 389.146 -36.0217)" fill="url(#paint0_linear_2026_4131)"/>
</g>
<ellipse cx="315.154" cy="131.947" rx="38.4689" ry="38.3023" transform="rotate(154.838 315.154 131.947)" fill="url(#paint1_linear_2026_4131)"/>
<circle cx="370.243" cy="63.5658" r="42.4656" transform="rotate(154.838 370.243 63.5658)" fill="url(#paint2_linear_2026_4131)"/>
<ellipse cx="296.799" cy="50.9652" rx="20.65" ry="20.8165" transform="rotate(154.838 296.799 50.9652)" fill="url(#paint3_linear_2026_4131)"/>
<ellipse cx="306.346" cy="23.1134" rx="12.823" ry="12.6564" transform="rotate(154.838 306.346 23.1134)" fill="url(#paint4_linear_2026_4131)"/>
<circle cx="318.552" cy="8.36369" r="15.4875" transform="rotate(154.838 318.552 8.36369)" fill="url(#paint5_linear_2026_4131)"/>
<ellipse cx="269.658" cy="12.3814" rx="12.4899" ry="12.6564" transform="rotate(154.838 269.658 12.3814)" fill="url(#paint6_linear_2026_4131)"/>
<ellipse cx="235.983" cy="15.5051" rx="5.99515" ry="6.16168" transform="rotate(154.838 235.983 15.5051)" fill="url(#paint7_linear_2026_4131)"/>
<ellipse cx="250.603" cy="36.052" rx="6.16168" ry="5.99515" transform="rotate(154.838 250.603 36.052)" fill="url(#paint8_linear_2026_4131)"/>
<g filter="url(#filter2_i_2026_4131)">
<circle cx="474.603" cy="-27.2245" r="21.6492" transform="rotate(154.838 474.603 -27.2245)" fill="url(#paint9_linear_2026_4131)"/>
</g>
<g filter="url(#filter3_i_2026_4131)">
<circle cx="484.051" cy="183.239" r="26.6451" transform="rotate(154.838 484.051 183.239)" fill="url(#paint10_linear_2026_4131)"/>
</g>
<ellipse cx="363.293" cy="143.555" rx="23.1479" ry="23.3145" transform="rotate(154.838 363.293 143.555)" fill="url(#paint11_linear_2026_4131)"/>
<circle cx="404.455" cy="105.452" r="11.6572" transform="rotate(154.838 404.455 105.452)" fill="url(#paint12_linear_2026_4131)"/>
<ellipse cx="381.996" cy="116.002" rx="11.8238" ry="11.6572" transform="rotate(154.838 381.996 116.002)" fill="url(#paint13_linear_2026_4131)"/>
<circle cx="397.941" cy="131.143" r="11.4907" transform="rotate(154.838 397.941 131.143)" fill="url(#paint14_linear_2026_4131)"/>
<circle cx="321.333" cy="65.199" r="14.1552" transform="rotate(154.838 321.333 65.199)" fill="#D9D9D9"/>
<circle cx="261.244" cy="94.3462" r="22.6483" transform="rotate(154.838 261.244 94.3462)" fill="url(#paint15_linear_2026_4131)"/>
<ellipse cx="272.598" cy="147.89" rx="11.1576" ry="11.3242" transform="rotate(154.838 272.598 147.89)" fill="url(#paint16_linear_2026_4131)"/>
<circle cx="270.055" cy="133.077" r="7.16087" transform="rotate(154.838 270.055 133.077)" fill="#D9D9D9"/>
<ellipse cx="285.558" cy="93.2281" rx="7.16087" ry="6.99434" transform="rotate(154.838 285.558 93.2281)" fill="url(#paint17_linear_2026_4131)"/>
<ellipse cx="361.192" cy="13.3561" rx="11.6572" ry="11.4907" transform="rotate(154.838 361.192 13.3561)" fill="url(#paint18_linear_2026_4131)"/>
<g filter="url(#filter4_i_2026_4131)">
<ellipse cx="340.59" cy="30.2096" rx="18.152" ry="17.9854" transform="rotate(154.838 340.59 30.2096)" fill="url(#paint19_linear_2026_4131)"/>
</g>
<circle cx="525.412" cy="164.361" r="18.152" transform="rotate(154.838 525.412 164.361)" fill="url(#paint20_linear_2026_4131)"/>
<circle cx="477.74" cy="91.0802" r="43.1318" transform="rotate(154.838 477.74 91.0802)" fill="url(#paint21_linear_2026_4131)"/>
<ellipse cx="484.287" cy="121.859" rx="37.3031" ry="37.1366" transform="rotate(154.838 484.287 121.859)" fill="url(#paint22_linear_2026_4131)"/>
<g filter="url(#filter5_i_2026_4131)">
<ellipse cx="550.76" cy="63.2181" rx="30.8084" ry="30.9749" transform="rotate(154.838 550.76 63.2181)" fill="url(#paint23_linear_2026_4131)"/>
</g>
<ellipse cx="487.427" cy="27.1004" rx="47.1285" ry="47.2951" transform="rotate(154.838 487.427 27.1004)" fill="url(#paint24_linear_2026_4131)"/>
<circle cx="432.322" cy="105.24" r="23.3145" transform="rotate(154.838 432.322 105.24)" fill="url(#paint25_linear_2026_4131)"/>
<circle cx="536.331" cy="113.97" r="43.1318" transform="rotate(154.838 536.331 113.97)" fill="url(#paint26_linear_2026_4131)"/>
<circle cx="425.846" cy="153.728" r="39.8011" transform="rotate(154.838 425.846 153.728)" fill="url(#paint27_linear_2026_4131)"/>
<g filter="url(#filter6_d_2026_4131)">
<circle cx="433.545" cy="40.0846" r="54.789" transform="rotate(154.838 433.545 40.0846)" fill="url(#paint28_radial_2026_4131)"/>
</g>
</g>
<path d="M90.125 46.7346C91.373 46.7346 92.4823 46.9686 93.453 47.4366C94.4237 47.9046 95.2383 48.5632 95.897 49.4126C96.573 50.2446 97.0757 51.2152 97.405 52.3246C97.7517 53.4166 97.925 54.5866 97.925 55.8346C97.925 57.5159 97.6217 59.0499 97.015 60.4366C96.4083 61.8059 95.5243 62.8979 94.363 63.7126C93.219 64.5272 91.8063 64.9346 90.125 64.9346H83.911C83.4603 64.9346 83.079 64.7872 82.767 64.4926C82.4723 64.1806 82.325 63.7992 82.325 63.3486V48.3206C82.325 47.8699 82.4723 47.4972 82.767 47.2026C83.079 46.8906 83.4603 46.7346 83.911 46.7346H90.125ZM89.865 61.9446C90.957 61.9446 91.8497 61.6672 92.543 61.1126C93.2363 60.5406 93.739 59.7952 94.051 58.8766C94.3803 57.9406 94.545 56.9266 94.545 55.8346C94.545 55.0199 94.4497 54.2486 94.259 53.5206C94.0857 52.7752 93.8083 52.1252 93.427 51.5706C93.0457 50.9986 92.5603 50.5479 91.971 50.2186C91.3817 49.8892 90.6797 49.7246 89.865 49.7246H85.315L85.575 49.4906V62.2306L85.419 61.9446H89.865ZM114.348 57.9926C114.348 59.4139 114.027 60.6706 113.386 61.7626C112.762 62.8372 111.913 63.6779 110.838 64.2846C109.781 64.8912 108.593 65.1946 107.276 65.1946C105.959 65.1946 104.763 64.8912 103.688 64.2846C102.631 63.6779 101.781 62.8372 101.14 61.7626C100.516 60.6706 100.204 59.4139 100.204 57.9926C100.204 56.5712 100.516 55.3232 101.14 54.2486C101.781 53.1566 102.631 52.3072 103.688 51.7006C104.763 51.0766 105.959 50.7646 107.276 50.7646C108.593 50.7646 109.781 51.0766 110.838 51.7006C111.913 52.3072 112.762 53.1566 113.386 54.2486C114.027 55.3232 114.348 56.5712 114.348 57.9926ZM111.228 57.9926C111.228 57.1086 111.046 56.3459 110.682 55.7046C110.335 55.0459 109.859 54.5346 109.252 54.1706C108.663 53.8066 108.004 53.6246 107.276 53.6246C106.548 53.6246 105.881 53.8066 105.274 54.1706C104.685 54.5346 104.208 55.0459 103.844 55.7046C103.497 56.3459 103.324 57.1086 103.324 57.9926C103.324 58.8592 103.497 59.6219 103.844 60.2806C104.208 60.9219 104.685 61.4246 105.274 61.7886C105.881 62.1526 106.548 62.3346 107.276 62.3346C108.004 62.3346 108.663 62.1526 109.252 61.7886C109.859 61.4246 110.335 60.9219 110.682 60.2806C111.046 59.6219 111.228 58.8592 111.228 57.9926ZM123.267 50.7646C124.255 50.7646 125.113 50.8686 125.841 51.0766C126.586 51.2846 127.158 51.5792 127.557 51.9606C127.973 52.3246 128.181 52.7666 128.181 53.2866C128.181 53.6332 128.077 53.9626 127.869 54.2746C127.661 54.5692 127.357 54.7166 126.959 54.7166C126.681 54.7166 126.447 54.6819 126.257 54.6126C126.083 54.5259 125.927 54.4219 125.789 54.3006C125.65 54.1792 125.485 54.0666 125.295 53.9626C125.121 53.8586 124.853 53.7806 124.489 53.7286C124.142 53.6592 123.882 53.6246 123.709 53.6246C122.825 53.6246 122.071 53.8152 121.447 54.1966C120.84 54.5779 120.372 55.0979 120.043 55.7566C119.713 56.3979 119.549 57.1432 119.549 57.9926C119.549 58.8246 119.713 59.5699 120.043 60.2286C120.389 60.8699 120.857 61.3812 121.447 61.7626C122.053 62.1439 122.747 62.3346 123.527 62.3346C123.96 62.3346 124.333 62.3086 124.645 62.2566C124.957 62.2046 125.217 62.1266 125.425 62.0226C125.667 61.8839 125.884 61.7366 126.075 61.5806C126.265 61.4246 126.551 61.3466 126.933 61.3466C127.383 61.3466 127.73 61.4939 127.973 61.7886C128.215 62.0659 128.337 62.4126 128.337 62.8286C128.337 63.2619 128.094 63.6606 127.609 64.0246C127.123 64.3712 126.482 64.6572 125.685 64.8826C124.905 65.0906 124.055 65.1946 123.137 65.1946C121.767 65.1946 120.58 64.8826 119.575 64.2586C118.569 63.6172 117.789 62.7506 117.235 61.6586C116.697 60.5666 116.429 59.3446 116.429 57.9926C116.429 56.5712 116.715 55.3232 117.287 54.2486C117.876 53.1566 118.682 52.3072 119.705 51.7006C120.745 51.0766 121.932 50.7646 123.267 50.7646ZM136.696 65.1946C135.483 65.1946 134.391 65.0472 133.42 64.7526C132.45 64.4406 131.522 63.9032 130.638 63.1406C130.413 62.9499 130.24 62.7332 130.118 62.4906C129.997 62.2479 129.936 62.0052 129.936 61.7626C129.936 61.3639 130.075 61.0172 130.352 60.7226C130.647 60.4106 131.011 60.2546 131.444 60.2546C131.774 60.2546 132.068 60.3586 132.328 60.5666C132.987 61.1039 133.637 61.5112 134.278 61.7886C134.937 62.0659 135.743 62.2046 136.696 62.2046C137.338 62.2046 137.927 62.1092 138.464 61.9186C139.002 61.7106 139.435 61.4419 139.764 61.1126C140.094 60.7659 140.258 60.3759 140.258 59.9426C140.258 59.4226 140.102 58.9806 139.79 58.6166C139.478 58.2526 139.002 57.9492 138.36 57.7066C137.719 57.4466 136.904 57.2472 135.916 57.1086C134.98 56.9699 134.157 56.7619 133.446 56.4846C132.736 56.1899 132.138 55.8259 131.652 55.3926C131.184 54.9419 130.829 54.4219 130.586 53.8326C130.344 53.2259 130.222 52.5499 130.222 51.8046C130.222 50.6779 130.508 49.7159 131.08 48.9186C131.67 48.1212 132.458 47.5146 133.446 47.0986C134.434 46.6826 135.526 46.4746 136.722 46.4746C137.849 46.4746 138.889 46.6479 139.842 46.9946C140.813 47.3239 141.602 47.7486 142.208 48.2686C142.711 48.6672 142.962 49.1266 142.962 49.6466C142.962 50.0279 142.815 50.3746 142.52 50.6866C142.226 50.9986 141.879 51.1546 141.48 51.1546C141.22 51.1546 140.986 51.0766 140.778 50.9206C140.501 50.6779 140.128 50.4526 139.66 50.2446C139.192 50.0192 138.698 49.8372 138.178 49.6986C137.658 49.5426 137.173 49.4646 136.722 49.4646C135.977 49.4646 135.344 49.5599 134.824 49.7506C134.322 49.9412 133.94 50.2012 133.68 50.5306C133.42 50.8599 133.29 51.2412 133.29 51.6746C133.29 52.1946 133.438 52.6279 133.732 52.9746C134.044 53.3039 134.486 53.5726 135.058 53.7806C135.63 53.9712 136.315 54.1446 137.112 54.3006C138.152 54.4912 139.062 54.7166 139.842 54.9766C140.64 55.2366 141.298 55.5746 141.818 55.9906C142.338 56.3892 142.728 56.9006 142.988 57.5246C143.248 58.1312 143.378 58.8766 143.378 59.7606C143.378 60.8872 143.066 61.8579 142.442 62.6726C141.818 63.4872 140.995 64.1112 139.972 64.5446C138.967 64.9779 137.875 65.1946 136.696 65.1946ZM149.61 63.3486C149.61 63.7992 149.445 64.1806 149.116 64.4926C148.787 64.7872 148.405 64.9346 147.972 64.9346C147.487 64.9346 147.097 64.7872 146.802 64.4926C146.507 64.1806 146.36 63.7992 146.36 63.3486V48.3206C146.36 47.8699 146.516 47.4972 146.828 47.2026C147.14 46.8906 147.539 46.7346 148.024 46.7346C148.44 46.7346 148.804 46.8906 149.116 47.2026C149.445 47.4972 149.61 47.8699 149.61 48.3206V63.3486ZM155.158 46.7086C155.401 46.7086 155.652 46.7779 155.912 46.9166C156.19 47.0379 156.398 47.2026 156.536 47.4106L162.854 57.1346L161.554 57.0826L168.028 47.4106C168.358 46.9426 168.782 46.7086 169.302 46.7086C169.718 46.7086 170.091 46.8559 170.42 47.1506C170.75 47.4452 170.914 47.8266 170.914 48.2946V63.3486C170.914 63.7992 170.767 64.1806 170.472 64.4926C170.178 64.7872 169.788 64.9346 169.302 64.9346C168.817 64.9346 168.418 64.7872 168.106 64.4926C167.812 64.1806 167.664 63.7992 167.664 63.3486V51.1026L168.678 51.3366L163.374 59.4226C163.218 59.6132 163.019 59.7779 162.776 59.9166C162.551 60.0552 162.317 60.1159 162.074 60.0986C161.849 60.1159 161.615 60.0552 161.372 59.9166C161.147 59.7779 160.956 59.6132 160.8 59.4226L155.834 51.5706L156.51 50.1926V63.3486C156.51 63.7992 156.372 64.1806 156.094 64.4926C155.817 64.7872 155.453 64.9346 155.002 64.9346C154.569 64.9346 154.214 64.7872 153.936 64.4926C153.659 64.1806 153.52 63.7992 153.52 63.3486V48.2946C153.52 47.8612 153.676 47.4886 153.988 47.1766C154.318 46.8646 154.708 46.7086 155.158 46.7086Z" fill="#2A2A2A"/>
<rect x="24" y="24" width="48" height="48" rx="10" fill="url(#paint29_linear_2026_4131)"/>
<g filter="url(#filter7_d_2026_4131)">
<rect x="37.8301" y="37.8306" width="13.0471" height="13.0471" fill="#B02828" stroke="#B02828"/>
<rect x="44.8535" y="44.8541" width="13.0471" height="13.0471" fill="#FF9601" stroke="#FF9601"/>
<rect x="44.3535" y="44.3541" width="7.02355" height="7.02355" fill="url(#paint30_linear_2026_4131)"/>
</g>
<rect x="36.5" y="36.5" width="15" height="15" fill="#B02828" stroke="#B02828"/>
<rect x="44.5" y="44.5" width="15" height="15" fill="#FF9601" stroke="#FF9601"/>
<rect x="44" y="44" width="8" height="8" fill="url(#paint31_linear_2026_4131)"/>
<defs>
<filter id="filter0_b_2026_4131" x="-12" y="-12" width="544" height="174" filterUnits="userSpaceOnUse" color-interpolation-filters="sRGB">
<feFlood flood-opacity="0" result="BackgroundImageFix"/>
<feGaussianBlur in="BackgroundImageFix" stdDeviation="6"/>
<feComposite in2="SourceAlpha" operator="in" result="effect1_backgroundBlur_2026_4131"/>
<feBlend mode="normal" in="SourceGraphic" in2="effect1_backgroundBlur_2026_4131" result="shape"/>
</filter>
<filter id="filter1_i_2026_4131" x="333.844" y="-95.3234" width="110.603" height="114.603" filterUnits="userSpaceOnUse" color-interpolation-filters="sRGB">
<feFlood flood-opacity="0" result="BackgroundImageFix"/>
<feBlend mode="normal" in="SourceGraphic" in2="BackgroundImageFix" result="shape"/>
<feColorMatrix in="SourceAlpha" type="matrix" values="0 0 0 0 0 0 0 0 0 0 0 0 0 0 0 0 0 0 127 0" result="hardAlpha"/>
<feOffset dy="-4"/>
<feGaussianBlur stdDeviation="7.5"/>
<feComposite in2="hardAlpha" operator="arithmetic" k2="-1" k3="1"/>
<feColorMatrix type="matrix" values="0 0 0 0 0 0 0 0 0 0 0 0 0 0 0 0 0 0 0.25 0"/>
<feBlend mode="normal" in2="shape" result="effect1_innerShadow_2026_4131"/>
</filter>
<filter id="filter2_i_2026_4131" x="448.948" y="-52.8788" width="47.3083" height="47.3086" filterUnits="userSpaceOnUse" color-interpolation-filters="sRGB">
<feFlood flood-opacity="0" result="BackgroundImageFix"/>
<feBlend mode="normal" in="SourceGraphic" in2="BackgroundImageFix" result="shape"/>
<feColorMatrix in="SourceAlpha" type="matrix" values="0 0 0 0 0 0 0 0 0 0 0 0 0 0 0 0 0 0 127 0" result="hardAlpha"/>
<feOffset dx="-4" dy="-4"/>
<feGaussianBlur stdDeviation="10"/>
<feComposite in2="hardAlpha" operator="arithmetic" k2="-1" k3="1"/>
<feColorMatrix type="matrix" values="0 0 0 0 0 0 0 0 0 0 0 0 0 0 0 0 0 0 0.25 0"/>
<feBlend mode="normal" in2="shape" result="effect1_innerShadow_2026_4131"/>
</filter>
<filter id="filter3_i_2026_4131" x="457.399" y="152.588" width="53.3027" height="57.3028" filterUnits="userSpaceOnUse" color-interpolation-filters="sRGB">
<feFlood flood-opacity="0" result="BackgroundImageFix"/>
<feBlend mode="normal" in="SourceGraphic" in2="BackgroundImageFix" result="shape"/>
<feColorMatrix in="SourceAlpha" type="matrix" values="0 0 0 0 0 0 0 0 0 0 0 0 0 0 0 0 0 0 127 0" result="hardAlpha"/>
<feOffset dy="-4"/>
<feGaussianBlur stdDeviation="7.5"/>
<feComposite in2="hardAlpha" operator="arithmetic" k2="-1" k3="1"/>
<feColorMatrix type="matrix" values="0 0 0 0 0 0 0 0 0 0 0 0 0 0 0 0 0 0 0.25 0"/>
<feBlend mode="normal" in2="shape" result="effect1_innerShadow_2026_4131"/>
</filter>
<filter id="filter4_i_2026_4131" x="322.464" y="8.18974" width="36.2527" height="40.0398" filterUnits="userSpaceOnUse" color-interpolation-filters="sRGB">
<feFlood flood-opacity="0" result="BackgroundImageFix"/>
<feBlend mode="normal" in="SourceGraphic" in2="BackgroundImageFix" result="shape"/>
<feColorMatrix in="SourceAlpha" type="matrix" values="0 0 0 0 0 0 0 0 0 0 0 0 0 0 0 0 0 0 127 0" result="hardAlpha"/>
<feOffset dy="-4"/>
<feGaussianBlur stdDeviation="7.5"/>
<feComposite in2="hardAlpha" operator="arithmetic" k2="-1" k3="1"/>
<feColorMatrix type="matrix" values="0 0 0 0 0 0 0 0 0 0 0 0 0 0 0 0 0 0 0.25 0"/>
<feBlend mode="normal" in2="shape" result="effect1_innerShadow_2026_4131"/>
</filter>
<filter id="filter5_i_2026_4131" x="519.914" y="28.2658" width="61.6917" height="65.9045" filterUnits="userSpaceOnUse" color-interpolation-filters="sRGB">
<feFlood flood-opacity="0" result="BackgroundImageFix"/>
<feBlend mode="normal" in="SourceGraphic" in2="BackgroundImageFix" result="shape"/>
<feColorMatrix in="SourceAlpha" type="matrix" values="0 0 0 0 0 0 0 0 0 0 0 0 0 0 0 0 0 0 127 0" result="hardAlpha"/>
<feOffset dy="-4"/>
<feGaussianBlur stdDeviation="7.5"/>
<feComposite in2="hardAlpha" operator="arithmetic" k2="-1" k3="1"/>
<feColorMatrix type="matrix" values="0 0 0 0 0 0 0 0 0 0 0 0 0 0 0 0 0 0 0.25 0"/>
<feBlend mode="normal" in2="shape" result="effect1_innerShadow_2026_4131"/>
</filter>
<filter id="filter6_d_2026_4131" x="363.743" y="-25.7174" width="139.604" height="139.604" filterUnits="userSpaceOnUse" color-interpolation-filters="sRGB">
<feFlood flood-opacity="0" result="BackgroundImageFix"/>
<feColorMatrix in="SourceAlpha" type="matrix" values="0 0 0 0 0 0 0 0 0 0 0 0 0 0 0 0 0 0 127 0" result="hardAlpha"/>
<feOffset dy="4"/>
<feGaussianBlur stdDeviation="7.5"/>
<feComposite in2="hardAlpha" operator="out"/>
<feColorMatrix type="matrix" values="0 0 0 0 0 0 0 0 0 0 0 0 0 0 0 0 0 0 0.25 0"/>
<feBlend mode="normal" in2="BackgroundImageFix" result="effect1_dropShadow_2026_4131"/>
<feBlend mode="normal" in="SourceGraphic" in2="effect1_dropShadow_2026_4131" result="shape"/>
</filter>
<filter id="filter7_d_2026_4131" x="33.3301" y="37.3306" width="29.0706" height="29.0706" filterUnits="userSpaceOnUse" color-interpolation-filters="sRGB">
<feFlood flood-opacity="0" result="BackgroundImageFix"/>
<feColorMatrix in="SourceAlpha" type="matrix" values="0 0 0 0 0 0 0 0 0 0 0 0 0 0 0 0 0 0 127 0" result="hardAlpha"/>
<feOffset dy="4"/>
<feGaussianBlur stdDeviation="2"/>
<feComposite in2="hardAlpha" operator="out"/>
<feColorMatrix type="matrix" values="0 0 0 0 0 0 0 0 0 0 0 0 0 0 0 0 0 0 0.25 0"/>
<feBlend mode="normal" in2="BackgroundImageFix" result="effect1_dropShadow_2026_4131"/>
<feBlend mode="normal" in="SourceGraphic" in2="effect1_dropShadow_2026_4131" result="shape"/>
</filter>
<linearGradient id="paint0_linear_2026_4131" x1="389.146" y1="-91.3103" x2="389.146" y2="19.2668" gradientUnits="userSpaceOnUse">
<stop stop-color="#BBAE82"/>
<stop offset="1" stop-color="#EFE3D5"/>
</linearGradient>
<linearGradient id="paint1_linear_2026_4131" x1="315.154" y1="93.6443" x2="315.154" y2="170.249" gradientUnits="userSpaceOnUse">
<stop stop-color="#9F4425"/>
<stop offset="1" stop-color="#F49B5F"/>
</linearGradient>
<linearGradient id="paint2_linear_2026_4131" x1="360.02" y1="92.0728" x2="412.709" y2="47.6412" gradientUnits="userSpaceOnUse">
<stop stop-color="#3B4429"/>
<stop offset="1" stop-color="#7D885E"/>
</linearGradient>
<linearGradient id="paint3_linear_2026_4131" x1="296.799" y1="30.1487" x2="296.799" y2="71.7817" gradientUnits="userSpaceOnUse">
<stop stop-color="#A53C1E"/>
<stop offset="1" stop-color="#EC8652"/>
</linearGradient>
<linearGradient id="paint4_linear_2026_4131" x1="306.346" y1="10.457" x2="306.346" y2="35.7698" gradientUnits="userSpaceOnUse">
<stop stop-color="#B43C22"/>
<stop offset="1" stop-color="#E68348"/>
</linearGradient>
<linearGradient id="paint5_linear_2026_4131" x1="318.552" y1="-7.12378" x2="318.552" y2="23.8512" gradientUnits="userSpaceOnUse">
<stop stop-color="#B84121"/>
<stop offset="1" stop-color="#E48A4C"/>
</linearGradient>
<linearGradient id="paint6_linear_2026_4131" x1="269.658" y1="-0.275048" x2="269.658" y2="25.0378" gradientUnits="userSpaceOnUse">
<stop stop-color="#C8AB84"/>
<stop offset="1" stop-color="#E8E1D1"/>
</linearGradient>
<linearGradient id="paint7_linear_2026_4131" x1="235.983" y1="9.34341" x2="235.983" y2="21.6668" gradientUnits="userSpaceOnUse">
<stop stop-color="#C9AD87"/>
<stop offset="1" stop-color="#EBE9D4"/>
</linearGradient>
<linearGradient id="paint8_linear_2026_4131" x1="250.603" y1="30.0568" x2="250.603" y2="42.0471" gradientUnits="userSpaceOnUse">
<stop stop-color="#C86448"/>
<stop offset="1" stop-color="#E3C3A8"/>
</linearGradient>
<linearGradient id="paint9_linear_2026_4131" x1="474.603" y1="-48.8736" x2="474.603" y2="-5.57531" gradientUnits="userSpaceOnUse">
<stop stop-color="#CF7A45"/>
<stop offset="1" stop-color="#DD8F5E"/>
</linearGradient>
<linearGradient id="paint10_linear_2026_4131" x1="503.985" y1="209.884" x2="491.156" y2="203.569" gradientUnits="userSpaceOnUse">
<stop stop-color="#AA472A"/>
<stop offset="1" stop-color="#E68751"/>
</linearGradient>
<linearGradient id="paint11_linear_2026_4131" x1="363.293" y1="120.241" x2="363.293" y2="166.87" gradientUnits="userSpaceOnUse">
<stop stop-color="#B3A277"/>
<stop offset="1" stop-color="#E6D6BB"/>
</linearGradient>
<linearGradient id="paint12_linear_2026_4131" x1="395.564" y1="101.895" x2="411.963" y2="117.109" gradientUnits="userSpaceOnUse">
<stop stop-color="#333B26"/>
<stop offset="1" stop-color="#5A6440"/>
</linearGradient>
<linearGradient id="paint13_linear_2026_4131" x1="370.173" y1="115.804" x2="389.959" y2="122.291" gradientUnits="userSpaceOnUse">
<stop stop-color="#B7976F"/>
<stop offset="1" stop-color="#E5D5B7"/>
</linearGradient>
<linearGradient id="paint14_linear_2026_4131" x1="386.45" y1="130.948" x2="409.431" y2="136.791" gradientUnits="userSpaceOnUse">
<stop stop-color="#A07754"/>
<stop offset="1" stop-color="#C1A87E"/>
</linearGradient>
<linearGradient id="paint15_linear_2026_4131" x1="244.307" y1="86.0747" x2="261.244" y2="116.995" gradientUnits="userSpaceOnUse">
<stop stop-color="#C0B5A1"/>
<stop offset="1" stop-color="#EBE7E4"/>
</linearGradient>
<linearGradient id="paint16_linear_2026_4131" x1="272.598" y1="136.566" x2="272.598" y2="159.214" gradientUnits="userSpaceOnUse">
<stop stop-color="#8A4331"/>
<stop offset="1" stop-color="#D98D68"/>
</linearGradient>
<linearGradient id="paint17_linear_2026_4131" x1="288.939" y1="88.7595" x2="285.702" y2="100.263" gradientUnits="userSpaceOnUse">
<stop stop-color="#B44F2B"/>
<stop offset="1" stop-color="#C96737"/>
</linearGradient>
<linearGradient id="paint18_linear_2026_4131" x1="361.192" y1="1.86544" x2="361.192" y2="24.8468" gradientUnits="userSpaceOnUse">
<stop stop-color="#D5BF99"/>
<stop offset="1" stop-color="#EADFCE"/>
</linearGradient>
<linearGradient id="paint19_linear_2026_4131" x1="340.59" y1="12.2242" x2="340.59" y2="48.1951" gradientUnits="userSpaceOnUse">
<stop stop-color="#DC6839"/>
<stop offset="1" stop-color="#DF613B"/>
</linearGradient>
<linearGradient id="paint20_linear_2026_4131" x1="525.412" y1="146.209" x2="525.412" y2="182.513" gradientUnits="userSpaceOnUse">
<stop stop-color="#C9B78F"/>
<stop offset="1" stop-color="#E4B694"/>
</linearGradient>
<linearGradient id="paint21_linear_2026_4131" x1="443.668" y1="96.0039" x2="462.772" y2="86.1565" gradientUnits="userSpaceOnUse">
<stop stop-color="#D1C79B"/>
<stop offset="1" stop-color="#8B7146"/>
</linearGradient>
<linearGradient id="paint22_linear_2026_4131" x1="484.287" y1="84.7224" x2="484.287" y2="158.996" gradientUnits="userSpaceOnUse">
<stop stop-color="#851E10"/>
<stop offset="1" stop-color="#9D3922"/>
</linearGradient>
<linearGradient id="paint23_linear_2026_4131" x1="550.76" y1="32.2432" x2="550.76" y2="94.193" gradientUnits="userSpaceOnUse">
<stop stop-color="#C3AE81"/>
<stop offset="1" stop-color="#D7B998"/>
</linearGradient>
<linearGradient id="paint24_linear_2026_4131" x1="487.427" y1="-20.1947" x2="487.427" y2="74.3955" gradientUnits="userSpaceOnUse">
<stop stop-color="#475031"/>
<stop offset="1" stop-color="#96A77B"/>
</linearGradient>
<linearGradient id="paint25_linear_2026_4131" x1="416.911" y1="105.24" x2="448.919" y2="128.555" gradientUnits="userSpaceOnUse">
<stop stop-color="#973B22"/>
<stop offset="1" stop-color="#DC7145"/>
</linearGradient>
<linearGradient id="paint26_linear_2026_4131" x1="536.331" y1="70.8385" x2="536.331" y2="157.102" gradientUnits="userSpaceOnUse">
<stop stop-color="#A79F77"/>
<stop offset="1" stop-color="#EBE0CD"/>
</linearGradient>
<linearGradient id="paint27_linear_2026_4131" x1="425.846" y1="113.927" x2="425.846" y2="193.53" gradientUnits="userSpaceOnUse">
<stop stop-color="#AAB1A1"/>
<stop offset="1" stop-color="#EDE9E5"/>
</linearGradient>
<radialGradient id="paint28_radial_2026_4131" cx="0" cy="0" r="1" gradientUnits="userSpaceOnUse" gradientTransform="translate(424.085 -0.711533) rotate(66.944) scale(93.6019)">
<stop stop-color="#496141"/>
<stop offset="1" stop-color="#9DAE82"/>
</radialGradient>
<linearGradient id="paint29_linear_2026_4131" x1="66.1698" y1="25.2843" x2="27.4316" y2="68.9106" gradientUnits="userSpaceOnUse">
<stop stop-color="#F1F2F4"/>
<stop offset="1" stop-color="#D9D9D9"/>
</linearGradient>
<linearGradient id="paint30_linear_2026_4131" x1="44.3535" y1="51.3777" x2="51.3771" y2="44.3541" gradientUnits="userSpaceOnUse">
<stop stop-color="#FF9601"/>
<stop offset="1" stop-color="#B02828"/>
</linearGradient>
<linearGradient id="paint31_linear_2026_4131" x1="44" y1="52" x2="52" y2="44" gradientUnits="userSpaceOnUse">
<stop stop-color="#FF9601"/>
<stop offset="1" stop-color="#B02828"/>
</linearGradient>
<clipPath id="clip0_2026_4131">
<rect width="520" height="150" fill="white"/>
</clipPath>
</defs>
</svg>
